<svg xmlns="http://www.w3.org/2000/svg" width="1024" height="1024" fill="none" viewBox="0 0 1024 1024">
<g>
<path d="M 550.00 921.03 C543.53,922.37 498.77,923.01 483.82,921.97 C465.65,920.71 450.01,918.50 434.36,915.00 C426.86,913.33 419.65,911.87 418.36,911.76 C417.06,911.65 416.00,911.27 416.00,910.91 C416.00,910.55 414.58,909.97 412.85,909.62 C411.12,909.27 405.39,907.45 400.10,905.57 C394.82,903.69 389.60,902.00 388.50,901.82 C387.40,901.65 386.27,901.24 386.00,900.93 C385.73,900.61 380.55,897.78 374.50,894.65 C358.25,886.22 347.08,878.42 342.67,872.42 C338.99,867.42 338.73,867.27 330.71,865.55 C326.19,864.58 321.27,863.33 319.77,862.78 C318.27,862.22 316.35,862.03 315.52,862.35 C314.68,862.68 314.00,862.52 314.00,862.02 C314.00,860.98 296.08,855.00 292.99,855.00 C291.89,855.00 291.00,854.47 291.00,853.83 C291.00,853.19 290.70,852.97 290.33,853.34 C289.96,853.70 288.95,853.40 288.08,852.67 C286.06,850.96 276.39,846.91 273.90,846.72 C272.86,846.64 272.00,846.26 272.00,845.87 C272.00,845.16 258.86,838.78 257.31,838.73 C256.86,838.71 256.01,838.02 255.40,837.20 C254.73,836.28 253.79,836.01 253.00,836.50 C252.23,836.98 251.94,836.91 252.28,836.35 C252.61,835.82 250.77,834.29 248.21,832.95 C245.64,831.60 242.93,829.93 242.19,829.24 C241.45,828.55 240.36,828.28 239.76,828.65 C239.16,829.02 238.98,828.84 239.35,828.24 C239.72,827.65 238.34,826.16 236.26,824.90 C234.19,823.65 231.22,821.59 229.67,820.31 C228.11,819.03 226.41,818.25 225.89,818.57 C225.37,818.89 225.07,818.77 225.23,818.30 C225.50,817.44 211.04,803.28 210.36,803.75 C210.16,803.89 210.02,803.75 210.05,803.45 C210.08,803.15 207.85,800.43 205.09,797.40 C202.32,794.38 198.81,790.14 197.28,787.98 C195.75,785.81 193.94,784.03 193.25,784.02 C192.56,784.01 192.05,783.66 192.12,783.25 C192.45,781.15 191.88,779.96 190.85,780.60 C190.16,781.02 189.96,780.87 190.36,780.23 C190.73,779.63 189.65,777.10 187.97,774.61 C183.84,768.50 176.84,753.34 173.47,743.25 C171.96,738.71 170.45,735.00 170.11,735.00 C169.77,735.00 169.45,733.99 169.38,732.75 C169.31,731.51 168.52,725.10 167.61,718.50 C166.71,711.90 165.69,700.65 165.35,693.50 C165.01,686.35 164.36,679.83 163.90,679.00 C163.30,677.93 163.05,677.87 163.03,678.81 C163.01,679.53 162.54,679.84 161.98,679.49 C161.42,679.14 161.23,678.44 161.54,677.93 C161.86,677.42 161.08,677.01 159.81,677.02 C155.83,677.06 137.05,670.60 136.51,669.00 C136.23,668.17 134.31,666.38 132.25,665.00 C130.19,663.62 127.68,661.49 126.67,660.24 C125.67,659.00 124.15,657.30 123.31,656.45 C121.28,654.42 114.00,640.07 113.98,638.07 C113.97,637.02 113.73,636.88 113.23,637.65 C112.18,639.31 111.71,616.35 111.69,562.50 C111.66,502.44 111.91,495.21 113.93,496.45 C115.02,497.13 117.17,492.09 116.36,490.77 C115.95,490.11 116.16,489.98 116.91,490.45 C117.66,490.91 118.06,490.68 117.95,489.85 C117.57,487.12 118.03,485.90 119.15,486.60 C119.89,487.05 120.04,486.87 119.56,486.10 C119.10,485.35 120.54,483.34 123.41,480.77 C125.93,478.50 128.00,476.05 128.00,475.32 C128.00,474.59 128.34,474.11 128.75,474.24 C129.16,474.37 131.52,473.08 134.00,471.37 C141.41,466.26 148.13,463.13 156.01,461.13 C160.73,459.93 162.74,459.05 161.48,458.73 C159.97,458.35 159.90,458.20 161.18,458.12 C163.21,457.98 163.65,456.57 164.48,447.50 C165.36,438.00 167.77,421.97 169.57,413.69 C170.38,409.95 170.79,406.46 170.47,405.94 C170.14,405.42 170.31,405.00 170.84,405.00 C171.98,405.00 174.60,395.35 174.22,392.56 C174.08,391.50 174.30,390.96 174.71,391.38 C175.48,392.15 178.11,384.21 178.36,380.35 C178.44,379.16 178.78,378.36 179.13,378.58 C179.61,378.87 181.67,373.11 182.56,369.00 C182.62,368.73 183.19,367.23 183.83,365.68 C184.48,364.14 185.00,362.22 185.00,361.43 C185.00,360.65 185.48,360.00 186.06,360.00 C186.64,360.00 186.84,359.55 186.50,358.99 C186.15,358.44 186.60,357.26 187.49,356.36 C188.39,355.47 188.87,354.10 188.57,353.32 C188.27,352.54 188.42,352.14 188.91,352.44 C189.97,353.10 191.24,350.19 190.44,348.91 C190.13,348.41 190.36,348.00 190.94,348.00 C191.52,348.00 192.00,347.12 192.00,346.05 C192.00,343.31 194.12,338.96 195.15,339.59 C195.62,339.88 196.00,339.64 196.00,339.06 C196.00,337.26 196.31,336.55 197.69,335.17 C198.42,334.44 198.76,333.43 198.45,332.92 C198.14,332.41 198.36,332.00 198.94,332.00 C199.52,332.00 200.00,331.10 200.00,330.00 C200.00,328.90 200.45,328.00 201.00,328.00 C201.55,328.00 201.89,327.65 201.75,327.23 C201.61,326.81 202.50,325.39 203.72,324.08 C204.93,322.77 205.69,321.32 205.41,320.85 C205.12,320.38 205.39,320.00 206.00,320.00 C206.61,320.00 206.84,319.55 206.50,319.00 C206.16,318.45 206.36,318.00 206.94,318.00 C207.52,318.00 208.00,317.26 208.00,316.37 C208.00,315.47 209.24,313.67 210.75,312.37 C212.26,311.07 213.06,310.00 212.53,310.00 C211.99,310.00 212.56,309.30 213.78,308.44 C215.00,307.59 216.00,306.03 216.00,304.99 C216.00,303.95 216.56,302.74 217.25,302.30 C219.26,301.01 223.65,295.60 222.00,296.45 C221.18,296.87 221.85,296.01 223.50,294.54 C225.15,293.06 225.82,292.17 225.00,292.55 C224.18,292.94 225.20,291.80 227.28,290.03 C229.36,288.26 231.96,285.03 233.07,282.87 C234.27,280.51 235.52,279.21 236.19,279.62 C236.81,280.00 237.04,279.88 236.71,279.35 C236.09,278.34 239.27,274.80 244.73,270.44 C246.50,269.02 247.91,267.55 247.86,267.18 C247.58,265.22 248.14,264.00 249.31,264.00 C250.93,264.00 256.00,258.84 256.00,257.20 C256.00,256.54 256.59,256.00 257.31,256.00 C258.93,256.00 264.00,250.84 264.00,249.20 C264.00,248.54 264.64,248.00 265.43,248.00 C266.21,248.00 267.79,246.81 268.93,245.37 C270.07,243.92 271.00,242.98 271.00,243.29 C271.00,244.01 275.48,240.35 279.41,236.41 C281.11,234.70 283.94,232.48 285.70,231.47 C287.45,230.46 288.62,229.15 288.29,228.57 C287.95,227.98 288.04,227.82 288.47,228.22 C289.34,229.00 298.00,223.19 298.00,221.83 C298.00,221.37 298.51,221.00 299.14,221.00 C299.77,221.00 300.92,220.21 301.71,219.25 C302.65,218.11 302.92,218.02 302.50,219.00 C302.08,219.98 302.35,219.89 303.29,218.75 C304.08,217.79 305.25,217.00 305.91,217.00 C306.56,217.00 308.27,215.76 309.71,214.25 C311.15,212.74 311.99,212.18 311.58,213.00 C311.16,213.82 311.80,213.38 313.00,212.00 C314.20,210.62 314.89,210.05 314.55,210.72 C314.20,211.39 316.75,210.30 320.21,208.29 C323.67,206.29 329.88,202.85 334.00,200.65 C338.12,198.44 341.99,195.98 342.60,195.17 C343.20,194.36 344.21,194.01 344.85,194.41 C345.48,194.80 346.00,194.72 346.00,194.23 C346.00,193.73 346.56,193.33 347.25,193.33 C349.27,193.33 361.00,187.81 361.00,186.86 C361.00,186.39 361.34,186.10 361.75,186.23 C362.94,186.60 374.00,182.89 374.00,182.12 C374.00,181.74 374.79,181.35 375.75,181.27 C376.71,181.18 383.80,179.06 391.50,176.55 C399.20,174.04 410.00,170.87 415.50,169.51 C427.15,166.63 451.92,162.01 455.82,161.98 C457.98,161.97 458.21,161.77 457.00,160.91 C455.85,160.10 456.24,159.95 458.70,160.25 C460.46,160.46 461.67,160.27 461.39,159.82 C461.11,159.37 461.47,158.99 462.19,158.98 C463.14,158.97 463.09,158.70 462.00,158.00 C461.17,157.47 460.83,157.02 461.23,157.02 C461.64,157.01 460.66,154.41 459.06,151.25 C454.72,142.66 452.77,130.82 453.97,120.25 C454.51,115.56 454.73,111.37 454.46,110.94 C454.20,110.52 454.44,110.02 454.99,109.84 C455.53,109.65 456.08,108.26 456.21,106.75 C456.33,105.24 456.81,104.00 457.28,104.00 C457.74,104.00 457.83,103.53 457.47,102.95 C457.11,102.38 458.03,100.69 459.51,99.22 C460.99,97.74 463.05,94.86 464.09,92.82 C465.13,90.78 466.78,88.66 467.74,88.12 C468.71,87.58 469.50,86.77 469.50,86.32 C469.50,85.87 469.87,85.62 470.32,85.77 C470.78,85.93 470.87,85.60 470.54,85.06 C470.20,84.52 472.42,82.42 475.46,80.39 C478.51,78.37 481.00,76.26 481.00,75.69 C481.00,75.13 481.29,74.96 481.65,75.31 C482.00,75.67 483.92,75.09 485.90,74.02 C490.19,71.71 499.34,69.01 502.93,68.98 C504.98,68.97 505.20,68.77 504.00,67.97 C502.92,67.25 503.62,67.11 506.50,67.45 C508.70,67.71 513.42,68.19 517.00,68.51 C536.88,70.30 554.08,81.10 562.47,97.07 C564.47,100.88 566.61,104.00 567.22,104.00 C567.83,104.00 568.09,104.24 567.80,104.54 C567.50,104.83 567.86,107.87 568.60,111.29 C569.33,114.70 569.93,121.32 569.93,126.00 C569.93,139.13 567.51,148.12 561.80,156.25 C559.96,158.87 559.95,159.00 561.68,159.07 C563.31,159.13 563.30,159.23 561.50,160.00 C559.50,160.86 560.66,161.07 570.05,161.51 C571.45,161.58 573.02,161.89 573.55,162.21 C575.15,163.18 589.07,165.08 590.06,164.46 C590.58,164.14 591.00,164.31 591.00,164.83 C591.00,165.35 593.06,166.08 595.57,166.46 C598.09,166.84 604.41,168.25 609.61,169.61 C614.82,170.96 619.51,171.80 620.04,171.47 C620.57,171.15 621.00,171.43 621.00,172.11 C621.00,172.78 621.30,173.04 621.66,172.68 C622.02,172.31 622.81,172.40 623.41,172.88 C624.01,173.35 626.97,174.52 630.00,175.47 C654.30,183.13 686.89,197.90 707.00,210.38 C719.31,218.02 744.00,235.18 744.00,236.10 C744.00,236.45 745.69,237.86 747.75,239.25 C751.32,241.64 770.27,260.41 778.80,270.00 C781.00,272.48 784.85,276.75 787.35,279.50 C793.68,286.47 798.90,292.92 803.00,298.85 C804.92,301.63 806.84,303.93 807.25,303.95 C807.66,303.98 808.00,304.57 808.00,305.27 C808.00,305.97 809.28,308.11 810.84,310.02 C813.66,313.48 818.26,321.09 825.06,333.53 C827.02,337.12 828.95,339.71 829.36,339.30 C829.77,338.90 829.81,339.33 829.45,340.28 C829.07,341.27 829.26,342.00 829.89,342.00 C830.50,342.00 830.93,342.34 830.84,342.75 C830.75,343.16 831.20,344.77 831.84,346.32 C832.48,347.86 833.00,349.58 833.00,350.12 C833.00,350.67 833.52,350.80 834.15,350.40 C834.83,349.99 835.04,350.13 834.66,350.74 C833.90,351.97 836.71,359.17 838.36,360.23 C838.99,360.64 839.18,360.98 838.78,360.98 C838.38,360.99 839.89,366.06 842.14,372.25 C848.10,388.70 854.47,415.21 856.86,433.50 C859.23,451.70 859.93,457.01 860.17,458.65 C860.26,459.29 862.85,460.31 865.92,460.92 C873.91,462.51 877.71,463.98 885.49,468.50 C893.64,473.24 899.76,479.28 904.74,487.50 C906.74,490.80 908.86,493.83 909.44,494.23 C910.09,494.69 910.12,494.98 909.50,495.00 C908.95,495.02 909.05,495.38 909.72,495.80 C910.39,496.23 911.29,499.04 911.72,502.04 C912.53,507.71 912.84,627.45 912.06,634.50 C911.82,636.70 910.85,639.63 909.91,641.02 C908.96,642.40 908.04,644.43 907.85,645.52 C907.66,646.61 906.71,648.37 905.75,649.44 C904.79,650.50 904.00,651.89 904.00,652.52 C904.00,654.86 890.87,666.81 884.50,670.27 C878.73,673.40 871.47,676.11 867.31,676.68 C865.00,677.00 862.88,677.87 862.59,678.63 C862.30,679.38 861.57,680.00 860.97,680.00 C860.37,680.00 860.16,679.55 860.50,679.00 C860.84,678.45 860.70,678.00 860.20,678.00 C859.69,678.00 858.98,684.41 858.61,692.25 C857.54,714.82 854.66,731.33 849.03,747.23 C847.91,750.37 847.00,753.86 847.00,754.98 C847.00,756.09 846.52,757.00 845.94,757.00 C845.36,757.00 845.13,757.40 845.44,757.90 C845.74,758.39 845.27,759.07 844.39,759.40 C843.48,759.75 843.04,760.66 843.36,761.51 C843.68,762.33 843.51,763.00 842.99,763.00 C842.46,763.00 840.87,765.30 839.45,768.11 C838.02,770.91 835.54,775.03 833.93,777.26 C832.32,779.48 831.00,781.86 831.00,782.54 C831.00,783.23 830.26,784.07 829.36,784.42 C828.45,784.76 828.00,785.33 828.34,785.67 C828.69,786.02 828.36,786.80 827.62,787.40 C826.88,788.01 822.68,792.56 818.28,797.52 C813.89,802.48 806.29,809.90 801.40,814.01 C796.50,818.13 792.28,821.75 792.00,822.07 C790.34,823.96 767.83,837.19 758.07,842.00 C738.77,851.52 713.26,860.72 692.76,865.54 C688.51,866.54 685.21,867.54 685.43,867.77 C686.14,868.48 674.72,879.51 669.00,883.63 C659.76,890.30 635.63,901.61 619.50,906.85 C604.07,911.85 589.23,915.57 588.32,914.66 C588.04,914.37 590.56,913.60 593.93,912.93 C597.29,912.27 600.24,911.42 600.48,911.03 C600.90,910.35 595.14,911.14 590.00,912.45 C588.62,912.80 586.04,913.12 584.25,913.15 C582.46,913.18 581.00,913.60 581.00,914.10 C581.00,914.59 580.21,914.99 579.25,914.98 C577.75,914.97 577.72,914.83 579.00,914.00 C579.83,913.47 579.99,913.02 579.37,913.02 C578.75,913.01 577.70,913.65 577.04,914.45 C576.21,915.45 574.44,915.79 571.42,915.53 C568.99,915.32 567.00,915.49 567.00,915.91 C567.00,916.32 560.65,916.72 552.88,916.79 C545.12,916.86 537.25,917.42 535.40,918.03 C532.91,918.86 530.58,918.85 526.50,918.00 C523.47,917.37 514.35,916.90 506.24,916.95 C485.32,917.09 463.04,916.23 459.35,915.13 C457.17,914.49 455.82,914.55 454.95,915.35 C454.00,916.23 453.89,916.19 454.48,915.14 C455.08,914.09 454.73,913.96 452.88,914.57 C451.57,915.00 449.38,915.28 448.00,915.20 C445.85,915.07 445.74,915.19 447.24,916.07 C449.56,917.43 467.55,919.60 488.50,921.05 C503.76,922.11 522.07,921.95 547.00,920.52 C553.56,920.14 553.94,920.21 550.00,921.03 ZM 474.86 864.07 C475.10,864.79 476.37,864.94 478.37,864.50 C480.09,864.12 501.08,863.44 525.00,862.99 C566.04,862.22 592.90,860.76 624.00,857.60 C631.42,856.84 638.62,856.21 640.00,856.20 C643.05,856.16 643.80,856.02 667.50,851.02 C691.67,845.91 692.64,845.69 703.85,842.58 C740.98,832.28 773.59,814.90 795.87,793.54 C819.10,771.28 833.19,746.09 838.68,717.00 C840.35,708.16 840.47,698.14 840.49,573.50 L 840.50 439.50 L 837.80 423.38 C826.32,354.84 799.30,305.44 755.51,272.95 C719.81,246.47 688.94,236.13 636.50,233.06 C627.15,232.51 599.81,231.76 575.75,231.38 L 532.00 230.68 L 532.02 197.09 L 532.04 163.50 L 537.72 159.00 C549.70,149.52 554.60,138.68 553.80,123.44 C553.42,116.16 552.85,114.03 549.51,107.46 C543.27,95.16 533.92,88.39 519.83,85.97 C506.10,83.61 491.37,88.38 481.68,98.33 C464.08,116.40 467.52,145.62 489.01,160.50 L 493.00 163.27 L 493.00 230.67 L 449.25 231.34 C388.20,232.27 364.43,234.26 339.10,240.52 C281.69,254.73 235.34,293.45 209.09,349.12 C196.60,375.61 187.87,410.18 185.06,444.30 C183.77,459.95 183.71,632.22 184.99,682.50 C186.01,722.80 187.07,729.39 195.49,747.53 C201.22,759.89 204.46,765.06 213.63,776.50 C234.86,802.98 260.54,820.65 298.94,835.18 C304.68,837.35 310.16,839.55 311.12,840.07 C312.08,840.58 316.16,841.69 320.18,842.52 C324.21,843.36 330.42,844.90 334.00,845.94 C337.58,846.99 345.45,848.77 351.50,849.91 C357.55,851.04 365.99,852.66 370.24,853.49 C377.68,854.95 384.74,855.83 406.50,858.01 C424.93,859.86 439.37,860.99 456.99,861.98 C468.20,862.60 474.62,863.36 474.86,864.07 ZM 600.36 737.55 C573.77,739.36 472.72,740.33 450.00,739.00 C383.29,735.08 358.35,731.63 329.50,722.35 C310.87,716.36 284.88,702.83 272.58,692.73 C253.63,677.17 240.45,663.27 229.88,647.70 L 223.63 638.50 L 223.25 596.50 C222.71,537.41 224.49,448.59 226.50,434.50 C231.68,398.10 240.07,373.24 254.50,351.50 C276.82,317.88 310.79,294.65 350.10,286.14 C367.34,282.40 387.23,281.02 439.34,279.92 C491.88,278.82 589.91,279.40 630.00,281.06 C672.09,282.80 690.43,286.68 715.26,299.11 C758.27,320.65 787.11,363.45 796.39,419.50 C800.70,445.55 802.00,478.48 802.00,561.62 C802.00,599.69 801.64,630.98 801.20,631.17 C800.76,631.35 798.45,635.10 796.06,639.50 C787.23,655.77 768.72,677.61 753.09,690.21 C726.95,711.30 695.63,724.88 657.94,731.45 C644.38,733.81 624.88,735.88 600.36,737.55 ZM 306.40 588.90 C307.45,590.05 308.76,591.00 309.32,591.00 C309.87,591.00 328.14,573.34 349.91,551.75 C385.19,516.77 443.20,460.08 537.36,368.57 L 568.16 338.64 L 565.33 337.07 C562.80,335.67 549.58,335.50 441.50,335.50 L 320.50 335.50 L 316.50 337.66 C311.84,340.17 307.90,344.18 305.60,348.72 C304.12,351.66 304.00,362.60 304.24,469.37 C304.49,583.24 304.56,586.85 306.40,588.90 ZM 478.45 697.55 C480.88,699.97 481.10,700.00 499.34,700.00 C500.04,700.00 500.71,700.00 501.36,700.00 C513.66,700.01 518.85,700.01 520.96,697.46 C522.50,695.61 522.40,692.39 522.23,686.84 C522.22,686.43 522.21,686.02 522.19,685.59 C521.90,675.35 521.96,674.98 524.19,674.05 C525.46,673.53 529.42,671.91 533.00,670.46 C536.58,669.02 540.79,667.31 542.37,666.67 C545.13,665.54 545.45,665.74 551.37,672.09 C558.92,680.19 560.90,681.36 564.68,679.94 C567.80,678.77 586.07,660.57 589.08,655.63 C592.42,650.15 591.71,648.20 583.44,640.22 L 575.88 632.92 L 579.54 623.46 L 583.21 614.00 L 593.49 614.00 C593.99,614.00 594.47,614.00 594.93,614.00 C600.83,614.01 604.16,614.02 606.05,612.37 C608.51,610.21 608.51,605.24 608.50,593.77 C608.50,593.08 608.50,592.37 608.50,591.62 C608.50,590.51 608.50,589.45 608.50,588.45 C608.52,577.76 608.53,573.13 606.23,571.04 C604.26,569.24 600.61,569.31 593.82,569.00 L 582.70 568.50 L 579.35 560.52 C577.51,556.14 576.00,551.98 576.00,551.29 C576.00,550.60 579.15,547.00 583.00,543.29 C593.46,533.22 593.02,531.23 576.73,515.25 C567.12,505.81 565.98,505.00 562.42,505.00 C558.95,505.00 557.79,505.75 551.34,512.16 L 544.13 519.32 L 533.81 515.27 L 523.50 511.21 L 523.00 500.52 C522.35,486.69 522.19,486.53 507.33,485.74 C501.38,485.42 492.70,485.52 488.07,485.95 C476.59,487.02 476.00,487.79 476.00,501.64 C476.00,510.67 475.77,512.14 474.25,512.67 C473.29,513.01 468.99,514.64 464.71,516.30 L 456.91 519.32 L 453.21 515.75 C438.24,501.33 437.96,501.36 421.13,518.42 C410.64,529.04 410.00,529.93 410.00,533.75 C410.00,537.51 410.52,538.27 417.17,544.24 L 424.33 550.68 L 420.72 559.59 L 417.11 568.50 L 405.96 569.00 C395.91,569.45 394.64,569.72 392.99,571.76 C390.64,574.67 389.67,583.71 390.16,598.06 C390.52,608.80 390.64,609.29 393.33,611.60 C395.87,613.79 397.00,614.00 406.31,614.01 L 416.50 614.03 L 420.37 623.65 L 424.23 633.26 L 416.62 640.21 C405.72,650.16 405.80,650.81 419.71,665.33 C436.84,683.19 437.15,683.28 447.74,672.76 L 455.03 665.52 L 459.76 667.32 C462.37,668.31 467.09,670.03 470.25,671.15 L 476.00 673.18 L 476.00 684.14 C476.00,694.43 476.15,695.24 478.45,697.55 ZM 331.00 776.94 C331.00,787.91 330.66,797.08 330.25,797.32 C329.27,797.89 304.36,790.93 296.00,787.75 C271.23,778.32 254.08,765.04 240.84,745.00 C225.17,721.30 222.28,707.95 223.56,665.26 L 224.26 642.03 L 228.38 648.82 C252.69,688.89 283.12,714.62 323.00,728.81 C358.01,741.28 391.67,744.65 491.00,745.65 C644.74,747.19 693.96,739.89 741.00,708.56 C758.75,696.74 785.06,668.37 793.54,651.90 C795.61,647.89 799.97,642.00 800.87,642.00 C801.22,642.00 801.24,656.96 800.92,675.25 C800.26,712.55 799.61,716.85 792.45,731.14 C779.10,757.78 757.64,777.21 730.11,787.56 C719.49,791.56 696.08,797.89 694.25,797.26 C693.31,796.94 693.00,791.95 693.00,776.92 C693.00,761.05 692.73,757.00 691.67,757.00 C690.95,757.00 685.43,757.87 679.42,758.94 C653.78,763.49 595.62,769.94 594.05,768.40 C593.75,768.10 593.03,766.43 592.45,764.68 C591.66,762.28 590.08,760.82 586.02,758.75 L 580.64 756.00 L 512.57 756.02 C448.47,756.04 444.26,756.15 440.42,757.90 C435.92,759.94 432.00,764.24 432.00,767.13 C432.00,767.26 432.00,767.38 432.01,767.50 C432.02,767.82 432.03,768.09 431.92,768.30 C431.46,769.20 428.79,768.98 414.44,767.77 C413.31,767.68 412.10,767.58 410.81,767.47 C384.82,765.30 360.71,762.17 341.66,758.51 C337.35,757.68 333.19,757.00 332.41,757.00 C331.24,757.00 331.00,760.43 331.00,776.94 ZM 562.68 479.35 C563.06,479.72 576.66,479.91 592.92,479.76 L 622.48 479.50 L 625.36 471.50 C626.95,467.10 629.25,461.02 630.48,458.00 L 632.71 452.50 L 689.47 452.50 L 693.99 465.03 C696.47,471.92 698.86,478.11 699.31,478.78 C700.30,480.27 731.55,480.53 732.46,479.06 C732.78,478.54 730.72,471.90 727.88,464.31 C725.05,456.71 721.95,448.25 721.00,445.50 C719.27,440.51 714.47,427.55 693.79,372.00 C687.74,355.77 682.15,341.83 681.36,341.00 C679.40,338.95 644.68,339.41 641.38,341.52 C639.32,342.84 636.07,350.43 629.19,370.00 C626.60,377.35 623.09,387.08 611.51,419.00 C610.22,422.58 605.82,434.73 601.75,446.00 C601.44,446.86 601.14,447.70 600.84,448.51 C596.64,460.16 594.23,466.84 592.85,466.64 C590.99,466.36 590.99,453.64 591.00,423.84 C591.00,422.30 591.00,420.71 591.00,419.07 L 591.00 371.00 L 562.00 371.00 L 562.00 424.83 C562.00,454.44 562.31,478.97 562.68,479.35 ZM 514.07 641.40 C507.37,643.37 494.41,643.38 487.11,641.42 C474.31,637.98 459.73,626.61 453.77,615.43 C448.14,604.86 446.57,591.91 449.53,580.53 C454.21,562.59 470.28,547.38 488.70,543.48 C501.61,540.74 511.39,541.88 523.82,547.58 C540.26,555.12 551.83,573.62 551.96,592.59 C552.01,599.38 548.64,612.24 545.31,617.91 C538.94,628.80 527.39,637.49 514.07,641.40 ZM 595.55 696.75 L 599.10 700.30 L 609.30 699.67 C628.00,698.52 642.20,693.70 658.44,682.99 C690.61,661.77 707.69,623.91 703.06,584.09 C701.67,572.12 696.94,557.16 691.45,547.34 L 687.78 540.78 L 695.89 533.24 C703.81,525.87 705.29,523.28 702.75,521.24 C702.06,520.68 691.38,517.42 679.00,514.00 C626.27,499.38 624.94,499.10 623.65,502.47 C623.02,504.11 650.94,565.81 653.95,569.44 C656.30,572.27 659.54,571.27 663.43,566.52 C668.06,560.86 669.93,559.00 670.96,559.00 C672.30,559.00 676.93,570.98 678.50,578.50 C680.84,589.68 680.45,605.98 677.57,617.30 C668.68,652.35 642.23,674.25 603.58,678.53 C595.79,679.39 592.00,682.83 592.00,689.02 C592.00,692.47 592.62,693.82 595.55,696.75 ZM 855.76 569.87 C856.01,657.60 856.12,663.00 857.76,662.98 C869.89,662.81 886.90,651.27 891.97,639.78 C895.78,631.16 896.11,624.64 895.80,564.50 L 895.50 506.50 L 893.05 500.59 C889.95,493.10 881.83,484.25 874.81,480.70 C869.04,477.78 859.23,475.32 856.92,476.20 C855.71,476.67 855.54,490.25 855.76,569.87 ZM 160.75 661.93 C162.81,662.43 165.40,662.76 166.50,662.67 C168.48,662.50 168.50,661.69 168.76,569.25 L 169.01 476.00 L 166.19 476.00 C161.52,476.00 152.91,478.99 147.55,482.47 C140.36,487.14 136.59,491.49 132.81,499.50 L 129.50 506.50 L 129.21 560.40 C128.88,620.69 129.47,631.90 133.41,640.22 C137.88,649.66 150.10,659.37 160.75,661.93 ZM 339.04 222.60 C337.24,224.32 337.38,224.32 348.50,222.48 C377.92,217.62 391.03,216.53 442.00,214.68 L 474.50 213.50 L 475.00 197.25 C475.40,184.21 475.24,181.00 474.18,181.00 C472.75,181.00 455.00,183.32 443.00,185.08 C427.23,187.39 391.49,197.68 375.50,204.52 C372.20,205.94 368.19,207.59 366.58,208.20 C361.78,210.03 340.62,221.09 339.04,222.60 ZM 674.50 221.94 C691.38,225.36 690.95,224.43 671.28,214.96 C655.58,207.41 636.34,199.62 623.50,195.62 C603.41,189.37 570.38,182.71 555.00,181.82 L 549.50 181.50 L 549.23 197.63 C548.95,213.66 548.96,213.76 551.23,214.36 C552.48,214.70 563.40,214.98 575.50,214.99 C613.61,215.02 654.48,217.89 674.50,221.94 ZM 679.52 425.96 C679.12,426.62 672.10,427.00 660.44,427.00 C645.31,427.00 642.00,426.75 642.00,425.60 C642.00,424.83 644.49,416.84 647.54,407.85 C650.58,398.86 654.68,386.66 656.66,380.75 C658.63,374.84 660.53,370.00 660.88,370.00 C661.94,370.00 680.21,424.85 679.52,425.96 ZM 467.80 880.20 C480.35,881.01 526.66,880.84 528.00,879.99 C529.10,879.29 528.43,879.02 525.50,879.00 C523.30,878.98 519.55,878.29 517.16,877.46 C512.82,875.95 506.55,876.30 505.43,878.11 C504.67,879.34 487.26,879.24 486.50,878.00 C486.15,877.43 481.19,877.00 475.05,877.00 C466.52,877.00 464.10,877.31 463.66,878.45 C463.23,879.56 464.19,879.96 467.80,880.20 ZM 580.50 917.01 C576.65,918.06 569.45,919.12 564.50,919.38 C559.55,919.64 557.08,919.64 559.00,919.38 C560.92,919.13 567.43,918.04 573.46,916.96 C587.11,914.52 589.62,914.54 580.50,917.01 ZM 252.13 261.25 C250.82,262.92 250.00,263.45 250.00,262.62 C250.00,262.41 250.79,261.63 251.75,260.87 C253.34,259.63 253.37,259.66 252.13,261.25 Z" fill="rgb(4,110,232)"/>
<path d="M 331.00 776.94 C331.00,760.43 331.24,757.00 332.41,757.00 C333.19,757.00 337.35,757.68 341.66,758.51 C360.71,762.17 384.82,765.30 410.81,767.47 C412.10,767.58 413.31,767.68 414.44,767.77 C428.33,768.94 431.28,769.19 431.87,768.38 C431.59,770.39 431.50,772.86 431.50,775.99 C431.50,785.10 431.69,786.04 434.00,788.55 C435.38,790.04 438.30,792.09 440.50,793.11 C444.27,794.85 448.53,794.96 513.50,794.96 L 582.50 794.97 L 586.50 792.70 C592.02,789.58 593.91,785.30 593.88,776.00 C593.86,771.57 593.64,768.45 592.95,766.09 C593.40,767.25 593.83,768.18 594.05,768.40 C595.62,769.94 653.78,763.49 679.42,758.94 C685.43,757.87 690.95,757.00 691.67,757.00 C692.73,757.00 693.00,761.05 693.00,776.92 C693.00,791.95 693.31,796.94 694.25,797.26 C694.54,797.37 695.39,797.29 696.65,797.07 C661.79,804.79 614.27,810.44 561.00,812.97 C481.28,816.76 388.32,810.06 330.04,797.35 C330.14,797.35 330.21,797.34 330.25,797.32 C330.66,797.08 331.00,787.91 331.00,776.94 ZM 600.36 737.55 C624.88,735.88 644.38,733.81 657.94,731.45 C695.63,724.88 726.95,711.30 753.09,690.21 C768.72,677.61 787.23,655.77 796.06,639.50 C798.45,635.10 800.76,631.35 801.20,631.17 C801.37,631.10 801.52,626.56 801.65,618.88 C801.49,640.16 801.27,659.31 801.04,670.50 C800.95,674.97 800.87,679.01 800.77,682.68 C800.82,680.36 800.87,677.89 800.92,675.25 C801.24,656.96 801.22,642.00 800.87,642.00 C799.97,642.00 795.61,647.89 793.54,651.90 C785.06,668.37 758.75,696.74 741.00,708.56 C693.96,739.89 644.74,747.19 491.00,745.65 C391.67,744.65 358.01,741.28 323.00,728.81 C283.12,714.62 252.69,688.89 228.38,648.82 L 224.26 642.03 L 223.58 664.88 C223.30,644.91 223.19,620.32 223.23,594.70 C223.24,595.30 223.24,595.90 223.25,596.50 L 223.63 638.50 L 229.88 647.70 C240.45,663.27 253.63,677.17 272.58,692.73 C284.88,702.83 310.87,716.36 329.50,722.35 C358.35,731.63 383.29,735.08 450.00,739.00 C472.72,740.33 573.77,739.36 600.36,737.55 ZM 339.04 222.60 C340.62,221.09 361.78,210.03 366.58,208.20 C368.19,207.59 372.20,205.94 375.50,204.52 C391.49,197.68 427.23,187.39 443.00,185.08 C449.59,184.12 457.90,182.98 464.30,182.15 C454.81,183.64 441.05,186.32 431.50,188.65 C428.20,189.46 422.58,190.73 419.00,191.47 C415.42,192.21 410.48,193.53 408.00,194.40 C405.52,195.26 402.83,195.99 402.00,196.01 C401.17,196.04 398.48,197.15 396.00,198.49 C393.52,199.83 389.59,201.85 387.25,202.99 C383.34,204.89 381.06,207.68 384.50,206.36 C385.33,206.05 386.00,206.25 386.00,206.83 C386.00,207.40 386.91,208.15 388.01,208.50 C389.12,208.86 389.79,209.53 389.50,210.00 C388.78,211.17 390.73,212.25 394.97,213.04 C400.46,214.06 429.35,213.82 430.74,212.74 C431.44,212.20 433.60,212.10 435.74,212.52 C437.81,212.93 447.38,213.32 457.00,213.38 L 474.50 213.50 L 442.00 214.68 C391.03,216.53 377.92,217.62 348.50,222.48 C337.38,224.32 337.24,224.32 339.04,222.60 ZM 550.00 921.03 C553.94,920.21 553.56,920.14 547.00,920.52 C522.07,921.95 503.76,922.11 488.50,921.05 C467.55,919.60 449.56,917.43 447.24,916.07 C445.74,915.19 445.85,915.07 448.00,915.20 C449.38,915.28 451.57,915.00 452.88,914.57 C454.73,913.96 455.08,914.09 454.48,915.14 C453.89,916.19 454.00,916.23 454.95,915.35 C455.82,914.55 457.17,914.49 459.35,915.13 C463.04,916.23 485.32,917.09 506.24,916.95 C514.35,916.90 523.47,917.37 526.50,918.00 C530.58,918.85 532.91,918.86 535.40,918.03 C537.25,917.42 545.12,916.86 552.88,916.79 C560.65,916.72 567.00,916.32 567.00,915.91 C567.00,915.49 568.99,915.32 571.42,915.53 C574.44,915.79 576.21,915.45 577.04,914.45 C577.70,913.65 578.75,913.01 579.37,913.02 C579.99,913.02 579.83,913.47 579.00,914.00 C577.72,914.83 577.75,914.97 579.25,914.98 C580.21,914.99 581.00,914.59 581.00,914.10 C581.00,913.60 582.46,913.18 584.25,913.15 C586.04,913.12 588.62,912.80 590.00,912.45 C595.14,911.14 600.90,910.35 600.48,911.03 C600.24,911.42 597.29,912.27 593.93,912.93 C590.56,913.60 588.04,914.37 588.32,914.66 C588.59,914.92 590.01,914.80 592.27,914.37 C588.09,915.38 584.02,916.29 580.34,917.06 C580.39,917.04 580.45,917.03 580.50,917.01 C589.62,914.54 587.11,914.52 573.46,916.96 C567.43,918.04 560.92,919.13 559.00,919.38 C557.08,919.64 559.55,919.64 564.50,919.38 C566.76,919.26 569.48,918.98 572.14,918.60 C570.99,918.79 569.94,918.95 569.00,919.06 C565.42,919.51 558.00,920.40 552.50,921.04 C540.31,922.46 504.78,923.01 487.06,922.15 C504.37,922.93 543.95,922.29 550.00,921.03 ZM 474.86 864.07 C474.62,863.36 468.20,862.60 456.99,861.98 C453.70,861.79 450.53,861.61 447.41,861.41 C455.46,861.57 481.28,861.74 510.13,861.83 C562.64,861.98 574.08,861.73 595.63,860.02 C609.31,858.93 623.65,857.60 627.50,857.07 C651.51,853.77 658.07,852.72 672.00,849.93 C687.15,846.90 699.58,843.93 710.81,840.55 C708.51,841.25 706.19,841.93 703.85,842.58 C692.64,845.69 691.67,845.91 667.50,851.02 C643.80,856.02 643.05,856.16 640.00,856.20 C638.62,856.21 631.42,856.84 624.00,857.60 C592.90,860.76 566.04,862.22 525.00,862.99 C501.08,863.44 480.09,864.12 478.37,864.50 C476.37,864.94 475.10,864.79 474.86,864.07 ZM 467.80 880.20 C464.19,879.96 463.23,879.56 463.66,878.45 C464.10,877.31 466.52,877.00 475.05,877.00 C481.19,877.00 486.15,877.43 486.50,878.00 C487.26,879.24 504.67,879.34 505.43,878.11 C506.55,876.30 512.82,875.95 517.16,877.46 C519.55,878.29 523.30,878.98 525.50,879.00 C528.43,879.02 529.10,879.29 528.00,879.99 C526.66,880.84 480.35,881.01 467.80,880.20 ZM 674.50 221.94 C664.68,219.96 649.84,218.25 632.77,217.03 C648.42,218.09 661.77,219.47 669.00,220.92 C674.46,222.02 679.55,221.84 679.35,220.56 C678.88,217.62 643.69,201.91 623.50,195.62 C622.63,195.35 621.74,195.08 620.82,194.81 C621.74,195.08 622.63,195.35 623.50,195.62 C636.34,199.62 655.58,207.41 671.28,214.96 C690.95,224.43 691.38,225.36 674.50,221.94 ZM 248.39 755.17 C255.95,764.24 264.72,771.68 275.19,777.87 C272.91,776.61 270.82,775.38 269.03,774.24 C261.95,769.71 254.82,763.00 248.39,755.17 ZM 812.40 775.23 C825.69,757.84 834.69,738.13 838.68,717.00 C834.64,738.39 825.95,757.67 812.40,775.23 ZM 709.66 793.94 C716.88,791.97 724.98,789.49 730.11,787.56 C741.80,783.16 752.40,777.13 761.75,769.60 C752.71,776.91 742.55,782.81 731.49,787.07 C725.23,789.48 717.91,791.77 709.66,793.94 ZM 224.83 706.72 C225.51,711.16 226.43,715.20 227.65,719.07 C226.71,716.34 225.93,713.65 225.35,711.03 C225.16,710.20 224.99,708.75 224.83,706.72 ZM 298.81 788.75 C303.67,790.41 310.94,792.58 317.27,794.32 C310.44,792.56 304.25,790.70 298.81,788.75 ZM 613.95 908.60 C615.77,908.04 617.63,907.45 619.50,906.85 C625.93,904.76 633.64,901.71 641.16,898.37 C633.84,901.64 626.45,904.61 620.50,906.57 C618.49,907.22 616.29,907.91 613.95,908.60 ZM 436.84 760.08 C437.94,759.22 439.16,758.47 440.42,757.90 C440.81,757.72 441.19,757.56 441.64,757.42 L 440.02 758.25 C438.80,758.88 437.74,759.47 436.84,760.08 ZM 592.45 764.67 C591.31,762.04 589.34,760.45 586.02,758.75 C590.07,760.82 591.66,762.28 592.45,764.67 ZM 432.01 767.53 L 432.01 767.50 C432.00,767.38 432.00,767.26 432.00,767.13 C432.00,766.18 432.43,765.07 433.16,763.94 C432.64,764.95 432.27,766.12 432.01,767.53 ZM 433.10 860.40 C426.15,859.86 419.16,859.25 411.56,858.51 C417.73,859.09 425.97,859.81 433.10,860.40 ZM 234.70 394.91 C239.58,378.21 245.98,364.33 254.50,351.50 C246.00,364.31 239.59,378.21 234.70,394.91 ZM 390.58 856.36 C380.51,855.26 375.47,854.52 370.24,853.49 C375.33,854.49 380.60,855.26 390.58,856.36 ZM 800.59 463.96 C799.71,444.89 798.37,431.47 796.39,419.50 C798.38,431.52 799.72,444.94 800.59,463.96 ZM 238.44 741.28 C239.20,742.50 240.00,743.73 240.84,745.00 C240.95,745.17 241.06,745.34 241.17,745.50 C240.23,744.11 239.32,742.70 238.44,741.28 ZM 225.50 447.66 C225.68,444.10 225.87,441.10 226.06,438.75 C225.87,441.12 225.69,444.12 225.50,447.66 ZM 474.02 181.00 C474.09,181.00 474.14,181.00 474.18,181.00 C474.44,181.00 474.64,181.18 474.79,181.65 C474.61,181.17 474.35,181.01 474.02,181.00 Z" fill="rgb(52,133,242)"/>
</g>
</svg>